<svg fill="none" height="36" viewBox="0 0 30 36" width="30" xmlns="http://www.w3.org/2000/svg"><g clip-rule="evenodd" fill="#fff" fill-rule="evenodd"><path d="m15.0007 2.17978c.2359 0 .7585.61351.9629.77347 1.2413.97164 1.372 1.26403 3.2098 2.20309.8321.4252 1.5398.74223 2.4903 1.04021.9109.28555 1.8671.48001 2.9345.65636 1.2495.20639 3.2055-.22778 3.2669 2.0745l-.0051 2.74739c.0047.3905.0695.4476.0742.8381l-.1404 3.5183c-.1712 3.5079-.936 7.1925-2.626 10.0421l-1.0873 1.6307c-.9268 1.2385-1.9312 2.1847-3.1444 3.1138-1.2606.9653-2.0802 1.3549-3.3916 2.0172-.3636.1837-2.2188 1.0239-2.5438 1.0239-.7344 0-3.8697-1.6603-4.8282-2.2747l-2.9613-2.3868-.85973-.9493c-.53991-.5793-1.04721-1.3786-1.47568-2.0773-1.35142-2.2039-2.36653-5.8265-2.53327-8.3791-.03578-.5479-.12942-1.0093-.13332-1.6216l-.06969-1.7568c.00335-.5995-.06867-1.0842-.07132-1.7586l.0704-1.7561c-.00002-.6101-.00282-1.22063-.00236-1.83057.00044-.61416.10454-1.08376.39662-1.42266.74775-.86762 1.44531-.5772 2.8116-.78204 3.34056-.50086 5.54415-1.45089 8.17345-3.45707.3127-.23861 1.2738-1.22644 1.4827-1.22644zm-14.99429443 8.01562c0 4.5736-.09446947 7.5344.99005143 11.9957.702873 2.8914 1.780693 4.7753 3.392153 7.0089 1.20208 1.6662 3.73603 3.7839 5.59065 4.7614.49964.2634.95534.5215 1.49014.797 1.031.5313 2.6145 1.2417 3.8064 1.2417.4815 0 2.8524-1.0379 3.3025-1.2646 1.0349-.5211 1.9636-1.059 2.8878-1.6885 4.3697-2.9765 7.0734-7.5069 7.9598-12.7457.6428-3.7993.569-6.2548.569-10.1059 0-.25342.0096-.52484.0023-.77571-.0184-.6282-.1149-1.54663-.3012-2.08277-.3927-1.12997-1.3004-1.91492-2.3734-2.28468-.8461-.29158-3.0678-.24314-5.2291-.98264l-2.1877-.92766c-1.0087-.55398-1.8813-1.22219-2.7527-1.96726-.8891-.760252-1.0154-1.17455793-2.3588-1.17455793-1.0878 0-2.1731 1.59807793-3.7095 2.53600793-.3082.18812-.6114.38948-.945.58084l-2.18052.935c-2.86819.97802-4.68711.43141-6.30009 1.50496-1.357543.90355-1.5722817 2.26372-1.65313712 3.7944-.01394911.2639.00033506.57491.00033506.84407z"/><path d="m15.3447 24.8204c-1.261 0-2.0864-.0809-3.2107-.6554-.7737-.3955-1.2837-.7393-1.8622-1.3307-1.02944-1.0523-1.94282-2.8514-1.94282-4.4827 0-2.1299.53897-3.7424 1.97712-5.2211 2.5451-2.617 6.835-2.611 9.4236.0353 2.5887 2.6462 2.5945 7.0316.0345 9.6335-.5893.5989-1.0657.9383-1.8512 1.3419-.626.3217-1.6643.6792-2.5683.6792zm-9.14792-6.8204c0 4.9262 3.98512 9 8.80392 9 7.6834 0 11.8168-9.6191 6.2075-15.3457-2.699-2.75546-7.1915-3.54041-10.5447-1.4631l-1.30414.9168c-1.88387 1.4563-3.16257 4.3396-3.16257 6.892z"/><path d="m13.4188 19.3359c-.2447-.3735-1.1933-1.4062-1.7883-1.4062-.6318 0-1.80457.8005-.43 2.1973.4877.4956 1.603 1.8105 2.1495 1.8105.6551 0 .7119-.2002 1.1865-.6855l4.2645-4.3593c.343-.3483.5926-.539.478-1.1517-.0922-.4927-.4853-.8348-1.0455-.8348-.6278 0-1.0164.582-1.3585.9317z"/></g></svg>