<svg fill="none" height="40" viewBox="0 0 40 40" width="40" xmlns="http://www.w3.org/2000/svg" xmlns:xlink="http://www.w3.org/1999/xlink"><clipPath id="a"><path d="m0 0h40v40h-40z"/></clipPath><g clip-path="url(#a)" fill="#fff"><path d="m24.5242 16.2844-6.01 5.6766-2.8844-2.9674c-.3197-.3292-.8462-.3367-1.1751-.017-.3292.3201-.3367.8463-.017 1.1755l3.4595 3.5513c.3213.3233.8407.3344 1.1755.0247l6.6104-6.235c.1606-.1514.2543-.3605.2605-.5809s-.0755-.4344-.2273-.5946c-.3217-.3344-.8521-.3491-1.1921-.0332z"/><path d="m20.0645 7.54828c-6.8687 0-12.45378 5.58512-12.45378 12.45372 0 6.8691 5.58508 12.4541 12.45378 12.4541 6.869 0 12.4541-5.585 12.4541-12.4541 0-6.8686-5.5851-12.45372-12.4541-12.45372zm0 23.24062c-5.9517 0-10.78659-4.8433-10.78659-10.7869 0-5.9435 4.83489-10.78653 10.78659-10.78653 5.9576 0 10.7869 4.82933 10.7869 10.78653 0 5.9573-4.8293 10.7869-10.7869 10.7869z"/><path d="m37.2033 15.4172.2751-4.9433c.0192-.3318-.1612-.64339-.4585-.79188l-4.4014-2.22563-2.2256-4.40144c-.1514-.29469-.4611-.47411-.7919-.45848l-4.9518.26701-4.1263-2.726108c-.2781-.1833255-.6385-.1833255-.9169 0l-4.1263 2.726108-4.943-.27515c-.3321-.01953-.64341.16086-.79189.45848l-2.22596 4.40144-4.40112 2.22563c-.29501.15109-.4741.46072-.45847.79192l.27482 4.9433-2.725785 4.1263c-.1833256.278-.1833256.6385 0 .9169l2.717645 4.1344-.27515 4.9433c-.01921.3318.16086.6435.45848.7919l4.40144 2.2257 2.22563 4.4014c.15109.295.46076.4741.79196.4585l4.9432-.2752 4.1263 2.7258c.2765.1892.6405.1892.917 0l4.1263-2.7258 4.9432.2752c.3319.0192.6431-.1612.792-.4585l2.2256-4.4014 4.4014-2.2257c.2947-.1514.4741-.4607.4585-.7919l-.2751-4.9433 2.7257-4.1262c.1834-.2781.1834-.6389 0-.917zm-1.5507 8.4861c-.1015.1491-.1488.3285-.1331.5086l.2582 4.6763-4.1595 2.1005c-.1586.0795-.2872.2084-.3667.367l-2.1009 4.1595-4.6763-.2582c-.179-.0065-.3559.0397-.5086.1332l-3.9013 2.576-3.9009-2.576c-.1355-.0915-.295-.141-.4585-.1417h-.0417l-4.6766.2586-2.10056-4.1598c-.07945-.1586-.20807-.2872-.36698-.3667l-4.16797-2.0924.25855-4.6763c.00651-.1791-.04005-.3559-.13351-.5086l-2.57567-3.9013 2.57567-3.9013c.10192-.1488.14914-.3286.13351-.5083l-.25855-4.6766 4.15983-2.10059c.15858-.07945.2872-.20807.36665-.36665l2.10063-4.15983 4.6766.25855c.1787.00619.3555-.04005.5086-.13351l3.9009-2.57567 3.9013 2.57567c.1492.10192.3289.14914.5086.13351l4.6763-.25855 2.1009 4.15983c.0795.15858.2081.2872.3667.36665l4.1595 2.10059-.2582 4.6766c-.0065.1788.04.3556.1331.5083l2.5761 3.9013z"/></g></svg>