<svg fill="none" height="40" viewBox="0 0 40 40" width="40" xmlns="http://www.w3.org/2000/svg" xmlns:xlink="http://www.w3.org/1999/xlink"><clipPath id="a"><path d="m0 0h40v40h-40z"/></clipPath><g clip-path="url(#a)" fill="#fff"><path d="m31.0977 13.8211c-.1379-.4242-.5048-.7333-.946-.7974l-5.4615-.7935-2.4426-4.94901c-.1975-.40009-.6049-.65338-1.051-.65338-.4462 0-.8533.25329-1.0508.65338l-2.4426 4.94901-5.4614.7935c-.4416.0641-.8081.3732-.9461.7974-.1379.4245-.0229.8902.2963 1.2015l3.9521 3.8525-.9329 5.4395c-.0754.4398.1052.8841.4663 1.1463.3607.2621.8392.2966 1.2341.0891l4.885-2.5681 4.8849 2.5681c.1715.0903.3589.1349.5454.1349h.0045c.6458-.0019 1.1689-.5259 1.1689-1.1719 0-.0901-.0101-.1776-.0293-.2619l-.922-5.376 3.9521-3.8525c.3195-.3113.4342-.777.2966-1.2015zm-6.326 3.8056c-.2762.2691-.4022.657-.3369 1.0373l.6357 3.7066-3.3286-1.7501c-.1709-.0898-.358-.1346-.5453-.1346-.1871 0-.3745.0448-.5454.1346l-3.3286 1.7501.6357-3.7066c.0653-.3803-.0607-.7682-.3369-1.0373l-2.6929-2.6249 3.7214-.5407c.3817-.0556.7116-.2951.8825-.6412l1.6642-3.3722 1.6644 3.3722c.1709.3461.5008.5856.8826.6412l3.7213.5407z"/><path d="m21.1966-.078125c-8.8855 0-16.1267 7.174695-16.23321 16.035525l-1.93268 5.6369c-.5307 1.5484-.49591 2.9114.09552 3.7396.35461.4962.90179.7807 1.50177.7807h.33417v1.9662c0 2.3764 1.9336 4.3097 4.31001 4.3097 1.08432 0 1.96622.8823 1.96622 1.9663v1.2551c0 2.3765 1.9333 4.3101 4.3097 4.3101h8.7867c2.3764 0 4.31-1.9336 4.31-4.3101v-5.0299c2.489-1.2863 4.6033-3.193 6.1459-5.5502 1.7273-2.6395 2.6404-5.7083 2.6404-8.8758 0-8.9514-7.2827-16.234125-16.2345-16.234125zm5.7871 28.863325c-.4163.191-.683.6073-.683 1.065v5.7617c0 1.0843-.8819 1.9663-1.9659 1.9663h-8.7867c-1.084 0-1.9659-.882-1.9659-1.9663v-1.2551c0-2.3764-1.9336-4.3097-4.31002-4.3097-1.0843 0-1.96626-.8823-1.96626-1.9663v-3.1381c0-.647-.52459-1.1719-1.17187-1.1719h-1.12763c-.01984-.2615.00824-.7358.2414-1.4163l1.99493-5.8182c.04181-.1224.06317-.2509.06317-.38 0-7.65927 6.23138-13.89067 13.89068-13.89067 7.6594 0 13.8908 6.2314 13.8908 13.89067 0 5.4117-3.1809 10.369-8.1037 12.6289z"/></g></svg>