<svg fill="none" height="1200" viewBox="0 0 763 1200" width="763" xmlns="http://www.w3.org/2000/svg" xmlns:xlink="http://www.w3.org/1999/xlink"><linearGradient id="a" gradientUnits="userSpaceOnUse" x1="599.62" x2="599.62" y1=".379883" y2="1199.62"><stop offset="0" stop-color="#8ea7e1"/><stop offset="1" stop-color="#7b8ab4" stop-opacity="0"/></linearGradient><path d="m864.68 409.737c18.299 18.299 18.299 47.961 0 66.251l-314.266 314.275c-18.299 18.29-47.952 18.29-66.251 0l-149.603-149.612c-18.299-18.29-18.299-47.952 0-66.242 18.29-18.299 47.952-18.299 66.242 0l116.482 116.482 281.145-281.154c18.299-18.29 47.962-18.29 66.251 0zm334.56 190.263c0 331.44-268.226 599.62-599.62 599.62-331.44 0-599.62-268.226-599.62-599.62 0-331.44 268.226-599.620117 599.62-599.620117 331.44 0 599.62 268.226117 599.62 599.620117zm-93.69 0c0-279.654-226.313-505.9295-505.93-505.9295-279.654 0-505.9294 226.3125-505.9294 505.9295 0 279.654 226.3124 505.93 505.9294 505.93 279.654 0 505.93-226.313 505.93-505.93z" fill="url(#a)"/></svg>